<svg xmlns="http://www.w3.org/2000/svg" viewBox="0 0 260.4 44.3">
    <path d="M7.1 22.2c0 7.7 5.5 13.4 12.7 13.4 6.7 0 10.1-4.2 11.1-6.2h3.8c-1 3.2-5.5 9.8-14.9 9.8-9.5 0-16.7-7.2-16.7-17 0-9.7 7.3-17 16.7-17s14 6.5 15 9.8h-3.9a12.4 12.4 0 0 0-11.1-6.3c-7.2 0-12.7 5.7-12.7 13.5zM54.8 28.6H41l-3.8 9.9h-3.8L46.1 5.7h3.7l12.7 32.9h-3.9l-3.8-10zm-1.3-3.3l-5.6-14.7-5.6 14.7h11.2zM80.9 38.6H64.5V5.7h3.9V35H81l-.1 3.6zM91.6 38.6H88L75.7 5.7h4.1l10 27.6 10-27.6h3.9L91.6 38.6zM110 38.6h-3.8V5.7h3.8v32.9zM119.1 12.1v26.5h-3.6V5.7h3.6l18.3 26.6V5.7h3.6v32.9h-3.3l-18.6-26.5zM163.5 23.5l-4.2 4.7v10.4h-3.8V5.7h3.8v17.5l15.4-17.5h4.6l-13.2 14.8 13.2 18h-4.4l-11.4-15zM197.9 38.6h-16.4V5.7h3.9V35H198v3.6h-.1zM200.3 5.7h17.5v3.5h-13.7v10.9h13.3v3.5h-13.3V35h13.7v3.5h-17.5V5.7zM226.3 38.6h-3.8V5.7h3.8v32.9zM235.3 12.1v26.5h-3.6V5.7h3.6l18.3 26.6V5.7h3.6v32.9h-3.3l-18.6-26.5z"/>
</svg>