<svg width="151" height="60" viewBox="0 0 151 60" fill="none" xmlns="http://www.w3.org/2000/svg">
<path d="M5.60394 29.5323C5.60394 26.2422 9.15742 24.1104 14.2755 24.1104C16.347 24.1104 18.6819 24.4143 19.5153 24.6174L20.1442 28.2927L19.8599 28.3936C18.5195 26.6273 16.9157 25.0838 14.1326 25.0838C11.1674 25.0838 9.33951 27.0531 9.33951 29.5309C9.33951 32.0087 11.1674 33.978 14.1326 33.978C16.63 33.978 18.2547 32.7398 19.8389 30.6473L20.1428 30.7481L19.4929 34.5047C18.3556 34.7078 16.0403 34.9515 14.2741 34.9515C9.15602 34.9515 5.60254 32.8393 5.60254 29.5295L5.60394 29.5323Z" fill="black"/>
<path d="M29.5601 30.7299H25.9856C25.7629 30.7299 25.6816 30.5674 25.7825 30.3853L27.5893 27.2576C27.6706 27.1162 27.8737 27.1162 27.9549 27.2576L29.7618 30.3853C29.8836 30.5884 29.7828 30.7299 29.5587 30.7299H29.5601ZM20.7065 34.4262L20.7471 34.67H26.1495L26.2097 34.3856C25.3777 34.0411 24.8693 33.7763 24.6465 33.6139C24.302 33.3701 24.2614 33.0046 24.5051 32.5788L24.6872 32.2538C24.8496 31.9499 25.0934 31.9092 25.4785 31.9092H30.0685C30.5349 31.9092 30.7184 32.0311 30.9005 32.3154L31.2661 32.9247C31.4888 33.2903 31.3879 33.5536 31.063 33.7567C30.8403 33.8982 30.2506 34.1629 29.4998 34.4262L29.5601 34.67H36.4653L36.5256 34.4066C35.7538 34.0621 35.0227 33.3715 34.5759 32.6194L29.5601 24.1104H26.0472L25.987 24.3541L26.6971 24.9423C27.2252 25.3892 27.1033 25.7337 26.798 26.2618L23.4266 31.9275C22.5736 33.3491 21.5987 34.1209 20.7051 34.4248L20.7065 34.4262Z" fill="black"/>
<path d="M45.4105 35.8899H45.6542L50.6098 27.1568L50.7316 27.1764V32.8225C50.7316 33.167 50.712 33.3505 50.3254 33.6139C49.8786 33.9178 49.4528 34.1419 48.8225 34.4262L48.8828 34.67H55.9295L55.9897 34.4262C55.3608 34.1419 54.9336 33.9192 54.4868 33.6139C54.1016 33.3505 54.0806 33.167 54.0806 32.8225V25.9578C54.0806 25.6133 54.1002 25.4298 54.4868 25.1665C54.9336 24.8625 55.3594 24.6384 55.9897 24.3541L55.9295 24.1104H50.8731L46.6081 31.6249H46.4666L42.2632 24.1104H37.1452L37.085 24.3541C37.7139 24.6384 38.1411 24.8611 38.5879 25.1665C38.9731 25.4298 38.9941 25.6133 38.9941 25.9578V32.8225C38.9941 33.167 38.9745 33.3505 38.5879 33.6139C38.1411 33.9178 37.7153 34.1419 37.085 34.4262L37.1452 34.67H42.2016L42.2618 34.4262C41.6329 34.1419 41.2057 33.9192 40.7589 33.6139C40.3737 33.3505 40.3527 33.167 40.3527 32.8225V27.1162L40.4942 27.0756L45.4091 35.8899H45.4105Z" fill="black"/>
<path d="M61.8089 29.1065V25.553C61.8089 25.3303 61.9307 25.2281 62.1941 25.2281H63.7978C65.7475 25.2281 66.8036 25.9382 66.8036 27.2787C66.8036 28.6191 65.7475 29.4315 63.7978 29.4315H62.1941C61.9307 29.4315 61.8089 29.3306 61.8089 29.1065ZM62.1955 30.6094H64.267C68.4704 30.6094 70.4412 29.3712 70.4412 27.2787C70.4412 25.1861 68.4718 24.1104 64.267 24.1104H56.611L56.5508 24.3541C57.1797 24.6384 57.6069 24.8611 58.0537 25.1665C58.4389 25.4298 58.4599 25.6133 58.4599 25.9578V32.8225C58.4599 33.167 58.4403 33.3505 58.0537 33.6139C57.6069 33.9178 57.1811 34.1419 56.5508 34.4262L56.611 34.67H63.6577L63.718 34.4262C63.0891 34.1419 62.6829 33.8576 62.2151 33.6139C61.8299 33.4108 61.8089 33.2287 61.8089 32.8827V30.933C61.8089 30.7103 61.9307 30.608 62.1941 30.608L62.1955 30.6094Z" fill="black"/>
<path d="M71.0598 34.67H83.5495L84.565 30.7705L84.3017 30.6697C82.3926 32.5788 81.0732 33.492 78.4931 33.492H76.6457C76.3823 33.492 76.2605 33.3912 76.2605 33.167V30.2228C76.2605 30.0001 76.3823 29.8979 76.6457 29.8979H77.3768C77.8236 29.8979 78.1079 29.9791 78.4525 30.2018L80.0563 31.2173L80.3 31.1361L81.1936 27.3991L80.9709 27.2576L78.4931 28.4958C78.1682 28.6583 77.8432 28.8208 77.3362 28.8208H76.6457C76.3823 28.8208 76.2605 28.7199 76.2605 28.4958V25.5516C76.2605 25.3289 76.3823 25.2267 76.6457 25.2267H77.9651C80.3406 25.2267 82.0676 25.7743 83.7526 27.7045L84.037 27.6036L83.0425 24.1104H71.0612L71.001 24.3541C71.6299 24.6384 72.0571 24.8611 72.5039 25.1665C72.8891 25.4298 72.9101 25.6133 72.9101 25.9578V32.8225C72.9101 33.167 72.8891 33.3505 72.5039 33.6139C72.0571 33.9178 71.6313 34.1419 71.001 34.4262L71.0612 34.67H71.0598Z" fill="black"/>
<path d="M90.3859 28.4538V25.5502C90.3859 25.3275 90.5078 25.2253 90.7711 25.2253H92.2334C93.9184 25.2253 95.2798 25.7323 95.2798 26.9509C95.2798 28.1695 94.0206 28.7788 92.6396 28.7788H90.7711C90.5078 28.7788 90.3859 28.6779 90.3859 28.4538ZM95.9087 34.6686H100.64L100.702 34.4459C98.7521 33.146 97.1077 32.0493 95.7869 30.8111L92.7614 29.9175L92.7824 29.776H93.4113C96.9648 29.776 98.9552 28.7409 98.9552 26.9537C98.9552 24.9844 96.6399 24.1104 92.6998 24.1104H85.1852L85.125 24.3541C85.7539 24.6384 86.1811 24.8611 86.6279 25.1665C87.0131 25.4298 87.0341 25.6133 87.0341 25.9578V32.8225C87.0341 33.167 87.0131 33.3505 86.6279 33.6139C86.1811 33.9178 85.7553 34.1419 85.125 34.4262L85.1852 34.67H92.232L92.2936 34.4262C91.6647 34.1419 91.2375 33.9192 90.7907 33.6139C90.4055 33.3505 90.3845 33.167 90.3845 32.8225V29.9189L90.5063 29.8783L95.9087 34.6714V34.6686Z" fill="black"/>
<path d="M101.323 34.67H113.264L114.279 30.3643L113.995 30.2635C112.107 32.4975 110.786 33.492 108.816 33.492H106.907C106.644 33.492 106.522 33.3912 106.522 33.167V25.9578C106.522 25.6133 106.542 25.4298 106.928 25.1665C107.375 24.8625 107.801 24.6384 108.431 24.3541L108.371 24.1104H101.324L101.263 24.3541C101.892 24.6384 102.319 24.8611 102.766 25.1665C103.151 25.4298 103.172 25.6133 103.172 25.9578V32.8225C103.172 33.167 103.152 33.3505 102.766 33.6139C102.319 33.9178 101.893 34.1419 101.263 34.4262L101.324 34.67H101.323Z" fill="black"/>
<path d="M123.694 30.7299H120.119C119.897 30.7299 119.815 30.5674 119.916 30.3853L121.723 27.2576C121.804 27.1162 122.007 27.1162 122.089 27.2576L123.896 30.3853C124.017 30.5884 123.915 30.7299 123.692 30.7299H123.694ZM114.839 34.4262L114.879 34.67H120.282L120.343 34.3856C119.511 34.0411 119.003 33.7763 118.78 33.6139C118.436 33.3701 118.395 33.0046 118.639 32.5788L118.821 32.2538C118.983 31.9499 119.227 31.9092 119.612 31.9092H124.202C124.669 31.9092 124.852 32.0311 125.034 32.3154L125.4 32.9247C125.623 33.2903 125.522 33.5536 125.197 33.7567C124.974 33.8982 124.384 34.1629 123.634 34.4262L123.695 34.67H130.601L130.662 34.4066C129.89 34.0621 129.159 33.3715 128.712 32.6194L123.697 24.1104H120.184L120.122 24.3541L120.832 24.9423C121.36 25.3892 121.239 25.7337 120.935 26.2618L117.563 31.9275C116.71 33.3491 115.735 34.1209 114.842 34.4248L114.839 34.4262Z" fill="black"/>
<path d="M136.482 28.353V25.3681C136.482 25.1454 136.604 25.0432 136.867 25.0432H138.898C140.299 25.0432 141.214 25.7939 141.214 26.8711C141.214 28.0686 140.341 28.6779 139.264 28.6779H136.867C136.604 28.6779 136.482 28.5771 136.482 28.353ZM136.482 33.2483V30.0198C136.482 29.797 136.604 29.6948 136.867 29.6948H139.467C140.989 29.6948 141.823 30.3853 141.823 31.5829C141.823 32.7805 140.91 33.5732 138.96 33.5732H136.869C136.605 33.5732 136.484 33.4724 136.484 33.2483H136.482ZM141.945 29.1051V28.9637C143.651 28.6387 144.726 27.8879 144.726 26.6287C144.726 24.8821 142.392 24.1104 139.548 24.1104H131.283L131.223 24.3541C131.852 24.6384 132.279 24.8611 132.726 25.1665C133.111 25.4298 133.132 25.6133 133.132 25.9578V32.8225C133.132 33.167 133.111 33.3505 132.726 33.6139C132.279 33.9178 131.853 34.1419 131.223 34.4262L131.283 34.67H140.057C143.651 34.67 145.397 33.6139 145.397 31.7048C145.397 30.1822 143.813 29.3488 141.945 29.1051Z" fill="black"/>
</svg>
