<svg xmlns="http://www.w3.org/2000/svg" viewBox="0 0 583.27 73.6"><title>Flower Mountain</title><defs><style>.st0{fill:#131309}</style></defs><path d="M525.88 24.2h8.15v43.87h-8.15zM77.05 69.01c-4.18 0-8.07-.97-11.66-2.91-3.6-1.94-6.47-4.64-8.62-8.09s-3.22-7.38-3.22-11.78 1.07-8.36 3.22-11.87 5.02-6.23 8.62-8.17 7.49-2.91 11.66-2.91 8.07.97 11.66 2.91c3.6 1.94 6.47 4.67 8.62 8.17 2.15 3.51 3.22 7.47 3.22 11.87s-1.07 8.33-3.22 11.78-5.02 6.14-8.62 8.09c-3.6 1.94-7.49 2.91-11.66 2.91m0-9.22c2.5 0 4.76-.61 6.79-1.83s3.64-2.86 4.83-4.91c1.19-2.06 1.79-4.34 1.79-6.83s-.6-4.86-1.79-6.92-2.8-3.69-4.83-4.91-4.3-1.83-6.79-1.83-4.76.61-6.79 1.83a13.6 13.6 0 0 0-4.83 4.91c-1.19 2.06-1.79 4.37-1.79 6.92s.6 4.77 1.79 6.83 2.8 3.69 4.83 4.91 4.3 1.83 6.79 1.83M37.88 5.4h10.03v62.66H37.88zM32.24 15.12V5.4H.28v62.67h10.65V43h20.68v-9.71H10.93V15.12zM583.07 24.2h-7.83v27.66l-33.22-29.22v45.43h7.84V40.42l33.21 29.21zM396.43 24.2v26.62q0 4.605-2.64 7.56c-1.77 1.97-4.23 2.95-7.4 2.95q-3.225 0-5.49-1.38a8.8 8.8 0 0 1-3.41-3.76c-.77-1.58-1.15-3.38-1.15-5.37V24.2h-8.13v27.01c0 3.48.75 6.55 2.26 9.2 1.51 2.66 3.63 4.73 6.37 6.21 2.73 1.48 5.92 2.22 9.55 2.22s6.88-.74 9.59-2.22 4.82-3.57 6.32-6.25c1.51-2.68 2.26-5.74 2.26-9.17V24.19h-8.13ZM486.63 24.2h-31.02v7.52h11.43v36.35h8.15V31.72h11.44zM360.94 34.47c-2.1-3.48-4.92-6.19-8.46-8.14-3.54-1.94-7.41-2.92-11.61-2.92s-8 .97-11.54 2.92c-3.54 1.94-6.36 4.66-8.46 8.14q-3.15 5.22-3.15 11.67c0 6.45 1.05 8.18 3.15 11.66s4.92 6.19 8.46 8.14c3.54 1.94 7.38 2.92 11.54 2.92s8.08-.97 11.61-2.92c3.54-1.94 6.36-4.66 8.46-8.14s3.15-7.37 3.15-11.66-1.05-8.18-3.15-11.67m-7.19 19.42c-1.31 2.3-3.09 4.12-5.34 5.45-2.26 1.33-4.77 2-7.54 2s-5.2-.67-7.46-2-4.03-3.15-5.34-5.45-1.96-4.89-1.96-7.75.65-5.45 1.96-7.75 3.09-4.12 5.34-5.45c2.26-1.33 4.74-1.99 7.46-1.99s5.28.66 7.54 1.99c2.25 1.33 4.03 3.15 5.34 5.45s1.96 4.89 1.96 7.75-.65 5.45-1.96 7.75M452.37 24.2h-7.83v27.66l-33.21-29.22v45.43h7.83V40.42l33.21 29.21zM291.67 41.93l-21.93-19.29v45.43h7.83V40.42l14.1 12.4 14.11-12.4v27.65h7.83V22.64zM514.61 68.07h8.23l-21.15-45.43-21.15 45.43h8.23l3.97-8.91h17.91l3.97 8.91Zm-19.73-15.06 6.8-15.8 6.81 15.8zM239.72 23.68c-5.17 0-9.72 1.82-13.49 5.91v-5.38h-9.75v43.87h10.01V44.67c0-6.66 5.15-11.67 11.58-11.67h5.22v-9.31h-3.57ZM209.61 36.44c-1.85-4.09-4.64-7.31-8.37-9.65-3.73-2.35-7.82-3.52-12.27-3.52-4.05 0-7.81.97-11.27 2.91-3.47 1.94-6.23 4.67-8.28 8.17-2.05 3.51-3.08 7.47-3.08 11.87s1.03 8.33 3.08 11.78 4.83 6.14 8.32 8.09c3.5 1.94 7.24 2.91 11.23 2.91q7.71 0 13.14-3.87c3.61-2.58 6.25-5.98 7.93-10.22h-10.23c-.7 1.28-1.56 2.34-2.6 3.18s-2.22 1.48-3.56 1.91c-1.33.44-2.86.65-4.6.65q-3.9 0-6.72-1.74t-4.38-5.04c-.62-1.31-1.05-2.74-1.3-4.3h34.38c.87-4.73.4-9.11-1.42-13.14m-31.69 2.1c1.01-2.18 2.47-3.86 4.38-5.05s4.13-1.78 6.68-1.78 4.74.55 6.59 1.65 3.27 2.58 4.25 4.44c.65 1.22 1.09 2.54 1.34 3.96h-24.3c.25-1.16.61-2.23 1.07-3.22M167.91 24.2h-9.78l-12.25 25.44-12.43-27.32-12.44 27.32-12.25-25.44h-9.78l22.03 45.75 12.44-27.32 12.43 27.32z" class="st0"/></svg>