<?xml version="1.0" encoding="utf-8"?>
<!-- Generator: Adobe Illustrator 28.2.0, SVG Export Plug-In . SVG Version: 6.00 Build 0)  -->
<svg version="1.1" xmlns="http://www.w3.org/2000/svg" xmlns:xlink="http://www.w3.org/1999/xlink" x="0px" y="0px"
	 viewBox="0 0 48 48.1" style="enable-background:new 0 0 48 48.1;" xml:space="preserve">
<style type="text/css">
	.st0{display:none;}
	.st1{display:inline;fill:none;stroke:#606060;stroke-width:2;}
	.st2{display:inline;fill:#606060;}
	.st3{display:none;fill:none;stroke:#606060;stroke-width:2;stroke-linejoin:round;}
	.st4{display:none;fill-rule:evenodd;clip-rule:evenodd;fill:#606060;}
	.st5{display:none;fill:none;stroke:#606060;stroke-width:2;stroke-linecap:round;stroke-linejoin:bevel;}
	.st6{display:inline;fill:none;stroke:#606060;stroke-width:2;stroke-linejoin:bevel;}
	.st7{display:inline;fill-rule:evenodd;clip-rule:evenodd;fill:#606060;}
	.st8{display:none;fill:#606060;}
	.st9{display:inline;}
	.st10{clip-path:url(#SVGID_00000080917090469585485440000010330610688877130941_);}
	.st11{fill-rule:evenodd;clip-rule:evenodd;fill:#606060;}
	.st12{display:inline;fill:#606060;stroke:#606060;stroke-width:0.35;stroke-miterlimit:10;}
	.st13{fill:url(#SVGID_00000039096489374871902710000012330317336052016783_);}
	.st14{fill:url(#SVGID_00000017516275933319434640000007261471411335060097_);}
	.st15{fill:#252B2E;}
	.st16{fill:none;stroke:#606060;stroke-width:2;}
	.st17{fill:none;stroke:#606060;stroke-width:2;stroke-linejoin:bevel;}
	.st18{fill:#606060;}
	.st19{fill:none;stroke:#606060;stroke-width:2;stroke-linecap:round;stroke-linejoin:bevel;}
	.st20{clip-path:url(#SVGID_00000170250304387092294600000016476745609363085963_);}
	.st21{clip-path:url(#SVGID_00000132056921546306602960000009990592576267272839_);}
	.st22{clip-path:url(#SVGID_00000173848383827627495370000009338955746335426440_);}
	.st23{clip-path:url(#SVGID_00000135684946381098422730000006818021966828293019_);}
	.st24{fill:#A6A6A6;}
	.st25{fill:#FFFFFF;}
	.st26{clip-path:url(#SVGID_00000067213522623459555380000014776864190047365027_);}
	.st27{fill:#1F1F1F;}
	.st28{fill:#A2A2A1;}
	.st29{fill:#EB3131;}
	.st30{fill:#F6B60B;}
	.st31{fill:#5778C5;}
	.st32{fill:#3BAD49;}
	.st33{fill:#FFFFFF;stroke:#FFFFFF;stroke-width:0.2667;stroke-miterlimit:10;}
	.st34{fill-rule:evenodd;clip-rule:evenodd;}
	.st35{fill:none;stroke:#000000;stroke-width:1.9649;stroke-linejoin:bevel;stroke-miterlimit:3.9298;}
	.st36{fill:none;stroke:#000000;stroke-width:1.9649;stroke-miterlimit:3.9298;}
</style>
<g id="Icons">
</g>
<g id="Layer_2">
</g>
<g id="FOOTER">
	<path class="st34" d="M19.2,16H6.1c-0.4,0-0.6,0.3-0.6,0.6v7.7c0,0.4,0.3,0.6,0.6,0.6h1.3V41c0,0.4,0.3,0.6,0.6,0.6H40
		c0.4,0,0.6-0.3,0.6-0.6V25h1.3c0.4,0,0.6-0.3,0.6-0.6v-7.7c0-0.4-0.3-0.6-0.6-0.6H28.8c1.3-0.5,2.5-1.2,3.4-2
		c1.6-1.6,2.1-3.1,2-4.2c-0.1-0.9-0.5-1.6-1.1-2.2c-0.6-0.6-1.4-1-2.2-1.1c-1.2-0.1-2.6,0.4-4.2,2c-1.3,1.3-2.2,3.5-2.7,5.3
		c-0.5-1.8-1.4-3.9-2.7-5.3c-1.6-1.6-3.1-2.1-4.2-2c-0.9,0.1-1.6,0.5-2.2,1.1s-1,1.4-1.1,2.2c-0.1,1.2,0.4,2.6,2,4.2
		C16.7,14.9,18,15.5,19.2,16L19.2,16z M19.5,25v15.4H8.7V25H19.5z M28.5,25h10.9v15.4H28.5V25z M27.2,25v15.3h-6.4V25H27.2z
		 M28.5,17.3h12.8v6.4H28.5V17.3z M19.5,17.3v6.4H6.8v-6.4H19.5z M20.8,23.7h6.4v-6.4h-6.4V23.7z M15.8,8.5c0.4-0.4,0.9-0.7,1.4-0.7
		c0.9-0.1,2,0.4,3.2,1.7c1.7,1.7,2.5,4.9,2.8,6.5c-1.6-0.3-4.8-1.1-6.5-2.8c-1.3-1.3-1.7-2.3-1.7-3.2C15.1,9.3,15.4,8.8,15.8,8.5
		L15.8,8.5z M32.2,8.5c0.4,0.4,0.7,0.9,0.7,1.4c0.1,0.9-0.4,2-1.7,3.2c-1.7,1.7-4.9,2.5-6.5,2.8c0.3-1.5,1.1-4.8,2.8-6.5
		c1.3-1.3,2.3-1.7,3.2-1.7C31.4,7.8,31.8,8.1,32.2,8.5L32.2,8.5z"/>
</g>
</svg>
