<?xml version="1.0" encoding="utf-8"?>
<!-- Generator: Adobe Illustrator 19.0.0, SVG Export Plug-In . SVG Version: 6.00 Build 0)  -->
<svg version="1.1" id="Layer_1" xmlns="http://www.w3.org/2000/svg" xmlns:xlink="http://www.w3.org/1999/xlink" x="0px" y="0px"
	 viewBox="-229 31 500 500" style="enable-background:new -229 31 500 500;" xml:space="preserve">
<style type="text/css">
	.st0{fill:#231F20;}
</style>
<g>
	<path class="st0" d="M79.3,300.9c-1.2,0-3-1.1-3-3.2c0,0,1.1-27.4,1.1-34.1c0-1.8-0.4-1.5-1.3-1.5s-5.5,1.5-7.3,1.5
		c-1.2,0-1.3-0.8-1.3-1.3c0-1.6,6.3-3.6,9.5-4.3c1.3-0.3-0.2-4.5,3.3-4.5c2.9,0,2.2,2.7,3.2,2.7c1.6,0,6.3-0.9,13.6-0.2
		c5.3,0.4,24.6,5.6,24.6,26.3c0,8.4-6.5,26.2-34.5,26.2c-7.5,0-19.1-3.6-18.2-6.1c0.2-0.7,1.1-1.7,2.4-1c4.2,2.1,11.7,2.8,17,2.8
		c6.7,0,25.9-4.1,25.9-24.2c0-13.8-16-20.5-29.8-18.7c0,0-1.1,0.2-1.1,1.4c0,0.6-0.2,24.7-0.2,31.2
		C83.1,294.1,83.2,300.9,79.3,300.9z"/>
	<circle class="st0" cx="190.2" cy="276.3" r="2.9"/>
	<circle class="st0" cx="-25.1" cy="275.4" r="2.7"/>
	<path class="st0" d="M-161.3,297l8.9-36.6c0,0,0.5-2.8,1.5-3.5c1.5-1,3.2-1,3.2-1s2.8,0.2,4,1c1,0.8,1.7,3.3,1.7,3.3l4.4,27.2
		c0,0,0.4,3.8,1.8,3.8c1.3,0,2.1-2.9,2.1-2.9l11.1-29.6c0,0,0.8-2.3,1.8-3.4c0.9-1,2.5-1,2.5-1h3.4c0,0,1.5,0.1,2.5,1.2
		c1.1,1.2,0.9,3.9,0.9,3.9l2.3,43.4c0,0,0.5,5.1-3.2,5.1c-3.8,0.1-3.9-3.3-3.9-3.3l-0.8-37.6c0,0-0.4-1.8-1.4-1.8
		c-0.5,0-1.2,1.9-1.2,1.9l-11.3,28.6c0,0-1.9,5.6-6.4,5.5c-4.2-0.1-5.2-5.5-5.2-5.5l-4.4-23.2c0,0-0.5-2.2-1.4-2.2
		c-0.8,0-1.3,2.2-1.3,2.2l-5.5,24.5c0,0,0.1,4.1-3.6,4C-162.6,300.9-161.3,297-161.3,297z"/>
	<path class="st0" d="M201,298.4c-2.6,0.9-4.6,0.7-5.5,0.7c-3.1,0-4.8-3.9-4.8-5.6s0.1-1.9,0.4-5.5c0.3-3.4-0.9-3.7-1.9-3.7
		s-1.7,0.2-2.4,1.8s-1.2,4-1.6,5.7c-0.4,1.6-3.2,5-5.6,5c-2.4,0-3.6-2-3.6-4.7c0-1.1,0.6-9.8,0.6-10.5c0-0.6,0.2-2.7,0.8-2.7h5.4
		c0.6,0,2-0.3,2-2.2c0-0.9-1.1-2.9-3.8-2.9h-3.9v-9.2c0-0.7,0.3-2.7-1.9-2.7c-2.2,0-2.4,3.2-2.4,4.5c0,1.3-0.4,5.9-0.4,6.5
		c0,0.4-0.5,1-1.1,1h-7.5c-0.3,0-0.4-0.3-0.4-1v-8.6c0-0.8,0-2.3-2.3-2.3c-1.7,0-2.2,1.3-2.2,1.9c0,2-0.4,7.7-0.8,9.7
		c-0.2,0.4-0.9,0.3-1.2,0.3c-0.5,0-5-0.2-6.2,0.2c-0.6,0.2-1.7,1.2-1.7,2.1c0,1.1,1.5,2.1,2.1,2.2c2.2,0.4,5.2,0.2,5.8,0.3
		c0.8,0.1,0.8-0.1,0.9,1.3c0.8,16.4-5.6,17.2-7.1,17.2c-2,0-2.8-2.3-2.8-2.4c0-1-0.1-2.9-0.1-4.9c0-2.9-0.1-5.8-2.4-5.6
		c-0.4,0-1.1,0.1-1.5,0.9c-0.7,1.5-1.1,4.4-2.1,7c-1.1,2.9-3.1,5.5-5.9,5.5c-1.3,0-1.9-1-2.1-2.1c-0.5-3.7,1.7-10.7-1.9-10.7
		c-3.1,0-2.5,4-4.4,6.2c-1.3,1.5-3.7,1.8-3.7,3.7c0,0.7,0.1,1.6,1.2,1.4c2,0,1.2-0.6,2.4-0.6c2.2,0,0.6,7.5,7.4,7.5
		c5.4,0,5.3-4.8,8.3-4.8c2.4,0,3.7,4.1,7.2,4.1c4.6,0,4.3-3.5,7.8-3.5s3.8,3.5,7.4,3.5c3.1,0,4-3.6,6.5-3.6c3,0,3.1,3.4,7.5,3.4
		c4.4,0,4.4-3.5,7.1-3.5c0.2,0,0.6,0,1.1,0.5s1.2,1.4,3.7,2.7c1.3,0.7,3.9,0.8,6.3,0.1c2.4-0.7,5.4-1.9,5.4-2.9
		C203.1,298,203.4,297.6,201,298.4z M170.5,292.2c-1.2,2.3-2.3,4.2-4.9,4.2c-1,0-3-0.4-3-2.9s0-10.5,0-12.6c0-2.1,0.7-2,1.5-2h6
		c1.5,0,1.7,0,1.7,1.8C171.8,282.5,171.3,290.5,170.5,292.2z"/>
	<path class="st0" d="M40.8,284.1c-2.9,0-4.2,0.4-4.7,0.6c-0.8,0.4-2.1,2-1.7,2.4c1.4,1.4,3.7-1,6.9,0c7.4,2.2,3.4,10.9-3.5,10.9
		c-11.6,0-3.4-12.7-8-12.7c-3.2,0-2.4,12.4-8.8,12.4c-5.7,0,0.4-14.6-6.2-14.6c-3.8,0-4.2,6.1-7.9,6.1c-2.5,0-2.5-6.3-4.6-6.3
		c-5.3,0-5.5,8.2-8.4,8.2c-2.9,0-0.6-7.6-4.6-7.6c-4.7,0-3.8,11.3-10.5,11.3c-1.6,0-1.5-7-1.5-8.9c0-1.9-3.8-2.4-3.8-2.2
		c0,0.2-2.1,3-2.8,3.3c-0.8,0.4-6.1,2.6-7.7,2.6c-2.6,0-8-9.7-10.2-9.7c-0.8,0-2.1,1-2.1,2.2v2.9c0,0.5-6.4,5.4-6.7,5.2
		c-1.7-1.2-3.6-2.1-5.6-4c-2.4-2.3-4.3-4.8-4.5-5c-0.4-0.4-0.7-0.6-1-0.6s-1.1,0.3-1.2,0.4c-0.7,0.3-0.5,0.8-0.5,1.3s0.3,4-0.1,6.3
		c-0.6,3.8-3.8,8.3-7.3,8.3c-3,0-3.2-1.6-3.2-2.2c0,0-0.1-0.7-0.1-1.5c0.1-0.9,0.2-2,0.2-2.4c0-0.8,1.1-3.4,1.1-4.3s-0.8-1.1-1-1.3
		c-0.2-0.1-1.7,0-2.2,0c-0.6,0-0.6,0.1-1,0.5c-0.2,0.2-0.8,0.1-1.2,0.1c-1,0-2-1.9-7.5-1.9c-11.9,0-12.5,6.8-12.5,8.6
		c0,2.3,1.2,8.5,8.1,8.5c6.8,0,10-3.2,12-3.2c2.3,0,2.5,3.2,7.4,3.2c7.4,0,7.9-7.4,10.6-10.1c0.8-0.8,1.3-0.4,1.5-0.4
		c0.5,0,2.3,1.6,2.3,2c0,0.4,0.1,0.1-0.6,0.5c-1.3,0.7-3.2,1.5-4.6,3.4c-0.7,0.8-0.6,1.8-0.6,2.4c0,2.1,5.1,4.1,8.4,4.1
		c3.3,0,6.9-0.3,6.9-4.1c0-3-1.6-4.3-1.6-5.2c0-0.9,6.3-5.5,7.7-5.4c1.1,0.1,3.1,2.9,3.1,3.6c0,1.2-6.4,1.7-6.4,5.8
		c0,1.5,2,4.4,7.4,4.4c7.3,0,8.6-3.1,8.6-5.5c0-2.4-0.7-2.3-0.7-3.5s2.2-1.9,5.3-2.2c2.4-0.2,1.2,9.7,6.5,9.7c5.5,0,6.1-6,9.6-6
		c3.4,0,1,6.9,4.8,6.9c2.9,0,4.9-10.4,7.8-10c2.8,0,0.3,10.1,3.9,10.1c4.8,0,4.2-10.5,8.4-10.5c3.3,0,0.1,12.3,7.4,12.3
		c4.4,0,5.3-4.8,8.4-4.8c3.6,0,2,4.3,10.6,4.3c4.8,0,12.4-4.2,12.4-10.3C51,284.6,43.7,284.1,40.8,284.1z M-84.4,293.5
		c0,0,0,1.6-3.6,3c-3.6,1.4-4.6,0.9-6,0.6c-1.5-0.3-3-2.5-3-3.7s0.5-3.1,1.8-4.3c1.3-1.2,2.4-1.5,3.5-1.8c1-0.2,3.6-0.2,4.3-0.2
		c0.6,0,1.9,0.1,1.9,0.1s1,0.4,1.1,1.4C-84.4,289.4-84.4,293.5-84.4,293.5z M-57.9,297.9c-0.3,1.1-2.4,0.7-2.4,0.7
		c-2-0.1-1.6-1.1-1.6-1.1c-0.3-1.8,3-2.4,3-2.4l0.5,0.7C-57.5,297.7-57.9,297.9-57.9,297.9z M-39.1,297.5c-0.3,1.1-2.4,0.7-2.4,0.7
		c-2-0.1-1.6-1.1-1.6-1.1c-0.3-1.8,3-2.4,3-2.4l0.5,0.7C-38.7,297.3-39.1,297.5-39.1,297.5z"/>
</g>
</svg>
