<?xml version="1.0" encoding="UTF-8"?>
<svg xmlns="http://www.w3.org/2000/svg" viewBox="0 0 139 32" fill="#000" role="img" aria-label="New Yorker">
  <path d="M81.376 28.768h-2.624v-10.048h2.624v10.048zM82.688 14.624l-5.216 0.352-2.528 2.336v12.032l2.592 2.688h5.024l2.464-2.752v-12.384l-2.336-2.272zM92.896 21.216h-2.208v-3.904h2.208v3.904zM96.768 15.616l-1.92-1.952-8.192 0.768 0.032 5.024v12.576h4v-7.104h2.208v7.104h3.872v-8l-1.248-1.408 1.248-1.504v-5.504zM130.336 16.32v-5.248l3.264-0.896v5.76l-3.264 0.384zM125.152 32.032h5.184v-10.304l3.264-0.192v10.496h5.536v-11.232l-1.856-2.528 1.696-2.688v-8.832l-2.336-2.72-11.488 3.808v24.192zM0 32.032h6.304v-16.416l9.824 16.416h5.44v-22.208l-5.952-1.504v11.616l-8.384-14.24-7.232-2.944v29.28zM24.16 10.432v21.6h13.888v-5.056h-7.52v-3.424l6.080 0.096v-3.904l-6.080-0.512v-2.752l6.24 0.64v-4.608l-12.608-2.080zM38.176 12.736l4.256 19.296h5.376l3.616-10.208 2.592 10.208h5.248l4.64-16.64-5.056-0.288-2.368 8.448-2.336-8.96-4.96-0.416-3.264 9.472-1.984-10.080-5.76-0.832zM69.504 32.032h3.456v-16.352l10.72-15.68h-7.744l-6.432 10.656-6.432-10.656h-7.744l10.688 15.68v16.352h3.488zM98.784 12.992v19.040h4.864v-7.872l3.904 7.872h5.056l-5.472-11.136 4.8-9.984-5.056 0.896-3.232 6.464v-5.92l-4.864 0.64zM112.896 32.032h10.368v-5.216h-4.864v-4.544l4.576-0.384v-5.184l-4.576 0.576v-3.264l4.608-1.12v-4.48l-10.112 2.336v21.28z"/>
</svg>
