<svg id="Wordmark" xmlns="http://www.w3.org/2000/svg" viewBox="0 0 400 55.03"><title>PP_Logo</title><path id="Fill-1" d="M20.55,22.36c-2.85,2.41-6.05,2.84-9.77,2.84H4.59V4.1h5.58c3.51,0,7.06.09,9.81,2.08a10.11,10.11,0,0,1,4.16,8.4,9.85,9.85,0,0,1-3.59,7.78M23.36,3.25C19.63.28,15.14,0,10.62,0H0V55H4.59V29.3h6c4.54,0,9.47-.57,13.12-3.54a14.2,14.2,0,0,0,5-11A14.36,14.36,0,0,0,23.36,3.25"/><path id="Fill-4" d="M36.55,35.63l9.3-21.51,9.24,21.51Zm9.3-31.54L23.85,55h4.29L35,39.34H56.68L63.5,55h4.29Z"/><polygon id="Fill-6" points="62.06 6.36 62.06 10.07 75.22 10.07 75.22 55.03 79.35 55.03 79.35 54.59 79.35 10.07 92.5 10.07 92.5 6.36 62.06 6.36"/><path id="Fill-8" d="M104.15,10.07h3.2c2.57,0,5.28.09,7.4,1a8.66,8.66,0,0,1,5.16,8.26,8.89,8.89,0,0,1-3.42,7.22c-2.43,2-5.47,2.13-8.65,2.13h-3.69Zm5.72,22.36a15.88,15.88,0,0,0,10-3.27A12,12,0,0,0,124,19.5c0-4.17-1.52-8.17-5.3-10.68-3.6-2.41-7.78-2.46-11.91-2.46H100V55h4.12V32.44h.95L121.75,55h4.8Z"/><polygon id="Fill-10" points="132.95 6.36 132.95 55.03 137.08 55.03 137.08 54.59 137.08 6.36 132.95 6.36"/><polygon id="Fill-12" points="149.44 51.32 180.46 6.36 145.43 6.36 145.43 10.07 173.09 10.07 142.06 55.03 179.19 55.03 179.19 51.32 178.73 51.32 149.44 51.32"/><polygon id="Fill-14" points="185.45 6.36 185.45 55.03 189.57 55.03 189.57 54.59 189.57 6.36 185.45 6.36"/><path id="Fill-16" d="M209.52,35.63l9.3-21.52,9.23,21.52Zm9.3-31.54L196.81,55h4.29l6.82-15.69h21.73L236.47,55h4.29Z"/><path id="Fill-18" d="M291.4,22.36c-2.86,2.41-6.06,2.84-9.77,2.84h-6.19V4.1H281c3.51,0,7.06.09,9.79,2.07a10.07,10.07,0,0,1,4.17,8.4,9.88,9.88,0,0,1-3.58,7.78m2.8-19.11C290.48.28,286,0,281.47,0H270.84V55h4.6V29.3h6c4.54,0,9.47-.57,13.12-3.54a14.24,14.24,0,0,0,5-11A14.4,14.4,0,0,0,294.2,3.25"/><polygon id="Fill-21" points="333.94 10.07 333.94 6.36 308.76 6.36 308.76 55.03 333.94 55.03 333.94 51.32 312.89 51.32 312.89 30.31 333.4 30.31 333.4 26.6 312.89 26.6 312.89 10.07 333.94 10.07"/><path id="Fill-23" d="M361.14,26.15c-2.51,2.12-5.33,2.5-8.62,2.5H347.1V10.07H352c3.12,0,6.24.08,8.66,1.82a8.92,8.92,0,0,1,3.66,7.4,8.72,8.72,0,0,1-3.16,6.86m2.55-16.93c-3.32-2.62-7.3-2.86-11.3-2.86H343V55h4.13V32.36h5.29c4,0,8.38-.5,11.63-3.12a12.68,12.68,0,0,0,4.4-9.82,12.81,12.81,0,0,0-4.73-10.2"/><polygon id="Fill-25" points="400 10.07 400 6.36 374.82 6.36 374.82 55.03 400 55.03 400 51.32 378.94 51.32 378.94 30.31 399.46 30.31 399.46 26.6 378.94 26.6 378.94 10.07 400 10.07"/></svg>