<?xml version="1.0" encoding="UTF-8"?>
<svg id="Layer_3" data-name="Layer 3" xmlns="http://www.w3.org/2000/svg" viewBox="0 0 1011.25 169.24">
  <g id="Layer_1" data-name="Layer 1">
    <g>
      <path d="M85.54,81c-1.29-6.11-5.52-11.19-9.9-15.49-3.29-3.41-7.09-6.26-11.35-8.32-10.39-5.65-22.67-6.2-33.29-11.34-6.49-3.13-13.08-8.71-14.41-16-.82-6.94,6.4-14.03,12.88-16,5.46-1.45,12.29-.78,17.1,1.32,7.86,3.38,14.35,10.35,18.55,17.61,1.44,2.49,3.24,5.47,6.1,6.29,2.64.85,5.39-.68,6.65-3.22,2.37-5.79,2.04-12.59,2.74-18.71.01-3.91.85-9.44-3.04-11.46-6.91-.72-6.43,8.95-18.29,3.03-10.48-4.65-25.87-6.08-36.61-1.86-6.89,2.5-12.46,7.46-16.77,13.35C1.38,25.56-.34,31.96.63,39c.39,5.94,3.1,11.44,6.42,16.26,3.24,5.09,7.84,8.76,13.29,11.21,8.58,4.14,18.05,5.05,26.73,8.65,7.43,2.83,16.48,6.15,19.53,14.34,2.44,6.3.08,13.56-3.7,18.73-6.65,7.75-18.02,8.42-27.43,6.5-10.07-2.07-18.66-11.83-22.38-20.95-1.11-2.72-1.76-5.88-3.12-8.3-2.11-4.15-6.6-3.55-7.61.78-1.07,5.22-.29,11.95-.77,16.98.21,5.09-4.72,18.13,1.72,20.08,3.79.55,7.5-2.17,11.36-1.76,3.29.11,6.41,1.25,9.62,1.93,4.87,1.11,10.05,1.45,14.96,1.47,6.8.11,13.44-.57,19.94-2.6,17.39-5.48,30.86-22.5,26.38-41.16"/>
      <path d="M148.13,114.75c5.59-3.22,5.49,3.38,8,6.3,1.69,2.02,4.53,2.37,6.99,1.73,4.78-1.42,9.4-3.81,14.12-5.53,2.7-.95,8.34-5.42,4.54-7.73-2.66-.88-6.2.14-8.1-2.42-3.41-5.34-1.76-12.64-2.02-18.73-.44-9.21,4.13-35.15-1.07-41.02-2.48-2.78-6.66-2.54-10.74-2.89-5.84-.49-12.21-.98-17.92.28-4.63.98-4.49,4.51-.41,6.42,5.37,2.56,13.03-.49,12.77,7.92.13,6.9-.13,14.66.41,21.2.78,11.2,1.2,25.47-12.58,28.57-17.57,4.04-22.84-7.18-21.22-22.59-.03-6.81-.78-13.95.14-20.85,1.27-12.7,3.25-22.7-13.73-20.18-5.42.89-12.33-.63-17.22,2.63-1.71,1.38-1.67,3.61.23,5.07,2.24,1.85,6.28,2.38,8.58,4.54,4.58,4.27,3.09,14.91,3.54,21.3-.09,7.8-.03,15.41,1.22,23.09.6,4.82.79,10.28,3.75,14.47,6.76,8.85,19.3,10.49,29.15,5.71,4.3-1.69,7.67-4.75,11.43-7.22"/>
      <path d="M220.94,53.88c8.72-5.1,19.86,1.67,24.22,10.01,2.84,5.54,3.52,11.89,3.88,18.07.22,4.59.58,9.06-.02,13.48-1.12,5.41-2.97,11.17-6.54,15.33-4.47,4.02-11.52,6.89-17.22,4.02-3.98-2.03-7.07-5.92-8.58-10.24-1.67-5.42-.79-12.76-1.26-18.48-.29-6.64-1.32-13.46-.02-20.09.8-4.75,1.53-9.47,5.4-12.02M212.36,48.58c-9.34-2.11-10.12-2.12-18.79,2.5-2.98,1.7-12.88,4.15-9.81,9.01.52.56.89.82,1.62,1.2,4.03,1.61,9.18,2.63,10.41,7.68,1.57,6.25,1.11,12.83,1.48,19.27.4,7.14-.31,13.53-.16,20.74-.24,16.27.93,31.03-1.52,45.74-.42,1.86-1.65,3.44-3.39,4.02-3.29,1.16-7.7.76-10.56,2.87-3.3,2.14-2.5,6.13,1.01,7.07,2.78.88,5.7.43,8.57.38,9.55.13,19.22-.69,28.89-.29,3.52.16,9.34.62,10.95-3.24.43-1.35-.14-2.72-1.51-3.65-4.83-2.91-13.11-.59-14.76-7.98-.76-3.15-.43-8.32-.5-12.21,0-4.51.03-7.6.21-11.57.11-2.02.19-4.3,1.22-6.03,2.98-4.42,10.06-.92,14.55-1.06,9.72.88,20.02-2.03,26.3-9.87,4.26-4.86,7.93-10.24,9.15-16.61.41-1.82.8-3.59,1.25-5.36,2.56-9.89,3.8-19.61-2.12-28.59-6.89-12.79-21.43-21.27-35.59-18.94-5.7.8-11.22,5.13-16.77,4.91"/>
      <path d="M294.16,62.07c4.38-9.57,18.71-13.98,27.48-8.45,3.23,1.92,6.02,4.89,6.46,8.65.06,5.01-6.39,4.6-10.08,5.13-5.68.43-11.99.23-17.65.23-3.35.04-7.97-.74-6.26-5.42M303.3,122.15c8.36,2.14,17.56,1.92,25.03-2.68,6.25-3.46,13.02-9.14,13.93-16.87-.1-3.33-2.95-3.1-5.65-1.07-3.84,3.03-7.96,6.5-13.05,6.85-9.05.81-18.28-3.44-23.86-10.99-3.48-4.94-8.24-13.23-5.66-19.24,2.25-3.39,6.76-2.36,11.16-2.7,4.25-.14,8.19-.64,12.55-.79,7.87-.72,23.74,2.65,27.41-6.43,1.2-3.59-.6-7.31-2.4-10.36-4.47-8.21-11.87-13.33-21.04-14.53-24.27-3.32-44.43,14.09-44.74,39.38-.29,6.14,1.2,12.17,2.97,18.04,2.89,11.13,12.35,18.9,23.17,21.35"/>
      <path d="M353.17,57.45c1.25,1.45,3.09,2.54,4.52,3.89,4.34,3.87,4.81,9.67,4.32,15.05-.69,9.83-.81,19.46-1.22,29.24-.5,9.1-5.98,8.36-12.25,11.49-2.65,1.63-2.53,4.49.27,5.86,4.34,1.87,9.54,1.01,14.19,1.16,4.98-.09,10.23-.48,15.38-.3,3.43.05,8.5.32,10.59-2.73.56-.96.4-2.06-.44-3-3.81-3.52-8.32-3.82-9.04-10.37-.56-3.94-.37-8-.5-11.99-.09-4.21-.29-8.64-.4-12.92-.03-5.16-.18-10.23,1.88-14.95,2.08-4.71,8.07-8.33,13.49-8.01,4.8.19,9.81,4.11,14.64,2.01,5.25-1.98,7.35-9.19,3.97-13.71-8.17-10.41-22.99.83-30.17,7.37-1.74,1.29-3.24,1.25-4.2-1.04-.91-2.09-1.36-5.15-2.68-7.15-3.75-5.69-10.49-.1-15.09,1.75-2.9,1.51-10.47,4.02-7.34,8.24"/>
      <path d="M468.63,96.18c.19,3.74.3,8.02-2.2,11.17-3.5,4.21-11.63,6.67-16.87,5.01-8.04-2.96-11.45-12.33-14.2-19.67-2.52-8.67-3.29-27.65,3.4-34.46,3.88-4.05,10.42-4.93,15.72-3.6,3.97,1.09,7.56,3.44,10.36,6.4,7.01,7.69,2.44,24.69,3.79,35M495.28,120.44c1.75-.69,3.84-2.07,3.48-4.17-1.84-4.32-9.86-2.88-10.66-9.42-.69-4.7-.17-10.13-.4-14.86-.41-8.33.31-16.28-.06-24.87-.16-3.45-.68-6.66-.69-10.09-.06-4.13.69-8.29.82-12.53.14-3.37.03-6.73.17-10.08.16-4.8.3-8.93.75-13.39.34-6.13,1.88-15.01-2.92-19.64-3.76-2.75-8.28-.74-13.07-.14-2.84.48-5.73.78-8.55,1.28-3.83.68-8.3,2.69-5.07,5.92,2.39,2.01,6.21,2.66,8.28,5.21,3.36,3.98,2.99,10.16,2.89,14.98-.11,2.2-.32,4.4-.46,6.61-.24,3.13-.15,6.89-1.68,9-1.85,2.64-6.09,2.43-9.72,2.23-9-.54-17.67-.6-25.35,4.62-12.7,7.13-17.39,18.9-18.44,32.89-.43,5.51-.01,11.1,1.71,16.35,1.68,5.88,4.16,11.86,9.23,15.61,8.96,7.69,20.14,10.86,31.4,6.97,3.48-1.02,7.31-4.32,10.26-4.93,3.19-.67,5.12,2.66,7.51,4.2,3.8,2.67,8.63,1.06,13.1.16,2.46-.55,5.01-1,7.36-1.88l.14-.05Z"/>
      <path d="M560.08,43.94c-7.25.4-14.29,5.1-19.37,9.71-1.12.99-2.45,2.34-3.83,2.71-3.46.82-3.5-7.35-5.64-9.46-4.02-4.93-10.25.48-14.76,2.22-2.93,1.53-10.47,4-7.28,8.28,1.23,1.48,3.08,2.58,4.52,3.94,4.36,3.88,4.81,9.67,4.33,15.05-.2,3.42-.44,7.6-.59,10.82-.33,5.92-.3,12.36-.62,18.23-.14,2.08-.58,4.45-1.6,5.92-2.33,3.81-8.14,3.78-11.22,6.15-1.32,1.06-1.73,2.51-1.06,3.73,2.7,4.24,11.89,2.61,16.42,2.88,6.36-.34,13.18-.23,19.68-.36,3.2-.02,8.55-2.57,5.26-5.94-1.6-1.54-4.42-2.66-6.17-4.39-1.82-1.64-2.47-4.12-2.72-6.51-.47-4.21-.26-8.42-.43-12.68-.11-6.66-.78-13.57-.08-20.18.43-8.1,6.99-14.57,15.24-14.18,3.75.18,7.35,2.54,11.02,2.61,4.12.21,7.89-2.9,8.81-6.86,1.65-5.97-3.72-11.88-9.75-11.7"/>
      <path d="M660.54,45.05c-3.14-1.39-7.17-.71-10.59-.84-5.65.11-11.27-1.38-16.72-.08-2.36.54-4.76,2.62-2.45,4.85,1.83,1.95,5.31,3.28,6.2,6.12,1.17,4.12-.61,8.51-1.57,12.77-.3,1.14-.63,2.27-.97,3.39-1.59,5.7-4.51,10.94-7.33,16.11-2.34,4.64-5.19,11.6-9.16,3.64-2-4.11-4.42-8.12-5.88-12.64-1.43-5.2-3.11-10.41-5.3-15.3-1.37-3.31-1.63-6.99.26-10.15,3.07-4.83,3.73-8.52-3.02-9.77-4.01-.53-8.13.03-12.17.21-3.09.23-6.22.16-9.34-.05-2.1-.09-4.41-.27-6.29.61-3.78,1.99.13,5.86,2.32,7.62,2.24,1.89,4.41,4.02,6.04,6.56,3.3,4.96,4.58,10.73,6.57,16.24.99,2.88,2.27,5.7,3.31,8.58,1.29,3.61,2.14,7.38,3.77,10.79,1.1,2.37,2.46,4.63,3.37,7.09,1.41,3.71,2.09,7.81,3.79,11.47.93,2.13,2.18,4.15,3,6.31,1.5,3.59.77,7.54-.68,11.05-2.1,4.93-4.31,9.52-8.06,13.13-6.53,5.8-15.7-1.42-22.95,5.24-4.34,3.88-2.82,12.23,2.51,14.46,3.44,1.54,7.74,1.23,11.4.22,8.62-2.63,13.34-10.72,18.93-17.29,2.36-3.04,4.32-6.4,5.62-10.02,1.15-3.17,1.9-6.44,3.35-9.49,2.53-4.97,4.76-10.64,6.87-15.94,1.91-4.44,4.41-8.72,6.32-13.29,2.31-6.12,4.22-12.29,7.54-17.97,2.19-4.31,4.47-8.25,6.84-12.4,1.42-2.49,2.49-5.27,4.23-7.6,1.64-2.25,3.9-4.01,6.54-5.55,2.75-1.48,8.1-5.37,3.79-8.03"/>
      <path d="M716.65,46.89c1.84-2.68,5.15-4.49,8.43-4.2,4.6.46,7.48,4.99,8.32,9.31.91,3.96-.39,7.77-3.03,10.77-4.12,5.23-7.52,4.4-11.26-.86-3.28-4.06-5.7-10.17-2.54-14.88M736.76,110.92c-10.04,6.02-25.74,7.3-33.35-3.12-2.68-3.9-4.48-8.73-4.24-13.47.2-2.35,1.05-4.68,2.15-6.99,2.47-4.44,5.27-11.27,10.91-11.73,3.29-.07,6.4,3.63,8.93,6.05,6.15,5.96,11.47,12.46,16.71,19.31,2.85,3.6,3.99,7.1-.96,9.87M780.03,123.09c3.84-1.7,10.49-6.84,8.7-11.5-2.06-2.43-6.33.62-8.92,1.12-6.19,1.93-12.39-.94-17.29-4.58-3.78-2.56-8.68-6.73-5.85-11.71,2.32-4.01,5.71-7.43,8.84-10.84,3.9-3.89,8.2-7.85,13.35-9.73,2.5-1.05,5.73-1.52,7.47-3.68,2.84-5.95-11.93-4.4-14.95-4.37-5.07.48-10.45.2-15.28,1.72-3.59,1.51-2.07,4.05.72,5.4,1.92,1.06,4.54,2.29,4.24,4.81-.39,3.67-5.68,11.2-9.42,11.99-2.66.51-4.75-1.69-6.41-3.49-2.84-3.23-5.72-6.45-8.79-9.64-2.69-2.77-5.86-5.96-1.05-8.66,7.15-3.78,12.75-10.11,11.06-18.68-2.2-10.41-14.56-14.46-24.09-13.63-16.12,1.31-27.33,13.8-17.29,28.91,1.47,2.76.42,4.9-1.99,6.33-5.55,3.09-11.09,6.64-14.29,12.44-3.23,5.57-4.04,12.18-3.37,18.47,1.65,10.58,9.24,20.2,20.02,22.64,9.57,1.79,20.39,1.41,28.61-4.28,1.69-1.14,3.29-2.45,4.78-3.82,2.48-2.22,4.36-4.46,6.93-4.43,3.18.34,4.82,3.64,7.02,5.62,6.92,7.25,18.27,7.6,27.11,3.65"/>
      <path d="M911.35,118.3c2.47,3.08,6.06,2.92,7.38-1.36.88-3.03.31-6.24.21-9.35-.25-4.49.17-8.92.46-13.46.21-3.2.18-7.89-2.78-9.47-3.78-1.58-6.43,3.06-7.77,5.99-1.78,3.83-3.47,7.66-6.14,10.9-4.48,5.37-10.53,9.8-17.12,12.04-9.68,2.73-20.7.52-28.73-5.46-9.58-6.55-17.65-16.79-18.61-28.63-1.34-19.91-2.5-31.97,10.2-48.87,6.3-9.15,14.49-12.85,25.53-13.22,10.7-.48,21.97,4.76,28.72,12.88,2.5,3.1,4.58,6.53,6.41,10.11,1.03,1.94,2.05,4.06,3.68,5.55,1.85,1.89,4.85,1.95,6.01-.69,1.22-2.59.89-5.81.77-8.65-.24-5.07-1.15-10.12-.84-14.87.38-4.4,1.47-11.79-4.54-12.44-3.47-.05-6.67,3.74-10.44,3.55-1.94.04-3.91-.49-5.8-1.01-8.29-2.43-16.25-3.72-24.95-3.81-20.75-.78-41.26,10.15-51.3,28.32-2.91,6.38-5.2,13.14-6.25,20.08-1.78,9.93-1.48,20.43,1.63,30.01,2.3,8.94,6.77,16.32,13.21,22.6,5.28,5.8,12.12,10.63,19.55,12.92,6.86,2.36,13.87,3.9,21.14,3.83,8.98.26,17.66-2.74,26.01-5.67,4.96-2.01,9.87-7.49,14.27-1.92"/>
      <path d="M988.77,108.53c-6.21,7.63-14.89,10.19-24.42,8.19-8.1-1.93-17.13-12.25-18.68-20.37-1.04-6.8-.78-14.24,1.74-20.71,3.74-8.54,10.4-17.96,20.58-18.4,6.75-.31,12.19,3.19,16.55,8,3.51,3.38,5.54,7.77,6.92,12.38.97,2.99,1.94,5.97,2.37,9.23.86,7.23-.53,15.52-4.96,21.55l-.1.13ZM1011.25,83.64c-.35-17.48-13.01-34.62-31.14-36.15-3.86-.34-7.65-.61-11.51-.41-5.09.26-9.81,1.91-14.35,3.67-4.43,1.77-9.36,3.5-13,6.41-4.85,4.18-8.45,10.18-10.42,16.08-1.24,4.46-2.66,8.94-3.24,13.54-.71,8.76,3.53,18.04,8.46,25.27,5.83,7.85,16.07,11.09,25.32,12.82,8.65,1.57,17.54.29,25.8-2.76,4.69-1.75,9.29-4.14,12.77-7.42,8.08-7.72,11.07-20.12,11.31-30.9"/>
    </g>
  </g>
</svg>