<?xml version="1.0" encoding="UTF-8"?>
<svg id="Timberland_2025_Horizontal_Lock-Up_RGB_Black_R" data-name="Timberland_2025_Horizontal Lock-Up_RGB_Black_R" xmlns="http://www.w3.org/2000/svg" viewBox="0 0 2318.72 406.95">
  <g id="Timberland_2025_Horizontal_Lock-Up_RGB_Black_R-2" data-name="Timberland_2025_Horizontal Lock-Up_RGB_Black_R">
    <g id="Tree_Icon" data-name="Tree Icon">
      <g id="Tree_Icon-2" data-name="Tree Icon">
        <g id="ORIGINAL">
          <path d="M2298.49,198.55c-.17-3.85-.38-6.64-.64-9.47-.76-8.24-2.02-16.34-3.76-24.25-.47-1.65-1-3.26-1.58-4.82-.76-2.03-2.12-3.49-4.35-3.82-1.71-.25-3.44.15-5.12.55-17.47,4.1-34.96,8.21-52.43,12.31-11.7,2.75-23.4,5.55-35.09,8.32-2.3.55-4.59,1.2-6.92,1.63-.25.05-.52.09-.76,0-.39-.14-.62-.57-.63-.98-.02-.41.14-.8.3-1.18.67-1.51,1.52-2.92,2.37-4.33,2.01-3.35,4.04-6.69,6.43-9.78,1.41-1.83,2.91-3.27,5.21-3.82,2.64-.63,5.31-1.2,7.96-1.79,8.9-1.96,17.93-3.33,26.71-5.81,6.92-1.95,13.61-4.59,20.24-7.34,4.07-1.69,8.12-3.43,12.2-5.09,1.34-.55,4.95-1.82,12.05-4.74.64-.26,1.28-.63,1.74-1.15.44-.5.62-1.22.61-1.88-.01-.71-.22-1.4-.49-2.06-.71-1.74-1.53-3.43-2.32-5.13-1.58-3.4-1.58-3.35-1.89-3.95-.37-.71-1.12-1.84-2.43-2.32-1.63-.6-3.22.23-3.89.42-4.48,1.32-8.79,3.19-13.12,4.96-14.3,5.87-29.24,11.54-44.35,14.89-.99.22-3.64.77-5.53.58-1.93-.19-1.49-2.06-.78-3.29,2.84-4.87,5.67-9.72,8.51-14.59,1.44-2.47,2.88-4.94,4.33-7.41,1.13-1.93,2.14-4.42,3.73-6.01.78-.77,1.81-1.25,2.86-1.51,1.06-.27,2.16-.35,3.25-.44,3.35-.25,6.7-.49,10.05-.74,6.62-.49,13.23-1.07,19.86-1.55.65-.05,1.61-.08,3.52-.33.93-.12,1.97-.28,2.36-1.03.1-.2.14-.39.15-.58.04-1.06-.52-1.9-1.07-2.76-.59-.9-1.19-1.8-1.8-2.69-2.91-4.27-5.42-7.79-10.66-9.21-3.17-.86-6.49-.93-9.78-1.01-9.57,0-19.16-.39-28.72-.69-1.01-.03-2-.07-2.99-.17-.96-.1-1.91-.17-2.78-.64-.47-.26-.89-.63-1.08-1.13-.31-.87.14-1.81.42-2.32.83-1.5,1.79-2.94,2.7-4.39,1.49-2.36,3-4.7,4.51-7.05,1.46-2.27,2.93-4.53,4.4-6.8,1.21-1.86,2.75-3.7,3.27-5.9.36-1.51.32-3.7-.89-4.82-.24-.23-.5-.42-.77-.62-.57-.43-1.14-.85-1.71-1.28-.45-.34-.9-.69-1.36-1.01-.26-.18-.53-.33-.82-.47-.62-.28-1.3-.43-1.98-.46-1.21-.04-2.4.29-3.43.91-1.12.67-1.81,1.63-2.59,2.63-10.73,13.92-20.92,28.3-31.18,42.57-1.09,1.52-2.19,3.03-3.27,4.55-.88,1.25-1.57,2.66-2.74,3.69-.43.38-.81.31-1.13-.17-.66-1-1-2.15-1.39-3.27-.41-1.18-.81-2.36-1.25-3.53-.94-2.62-1.88-5.23-2.79-7.86-1.44-4.19-2.97-8.35-4.47-12.52-.26-.76-.54-1.53-.52-2.33.02-.96.51-1.45,1.15-2.08,3.01-2.96,6.28-5.62,9.5-8.36,5.01-4.28,10.1-8.47,15.15-12.71,1.72-1.43,3.44-2.87,5.15-4.32.86-.72,1.71-1.44,2.56-2.16.73-.62,1.56-1.18,2.23-1.86,1.48-1.51,1.76-3.98.46-5.7-.32-.42-.75-.73-1.2-1-.63-.38-1.29-.71-1.95-1.04-1.46-.75-2.71-1.27-4.11-1.37-1.35-.1-2.8.47-3.99,1.04-7.47,3.58-14.54,7.96-21.78,11.97-3.72,2.06-7.48,4.05-11.34,5.82-.79.36-1.67.72-2.5.47-.99-.3-1.49-1.31-1.97-2.14-.7-1.21-1.37-2.44-2.03-3.67-1.31-2.41-2.59-4.84-3.87-7.26-2.17-4.1-4.31-8.21-6.45-12.33-.88-1.69-1.76-3.38-2.59-5.11-.94-1.95-1.91-3.98-3.37-5.61-.95-1.06-2.14-1.88-3.42-2.48-.17-.08-.34-.15-.51-.22-1.66-.7-3.45-1.08-5.23-1.3-1.19-.15-2.39-.21-3.59-.27-.73-.03-1.47-.06-2.2.04-.85.12-1.77.39-2.1,1.27-.15.39-.17.81-.16,1.22.06,1.56.69,3.02,1.33,4.42.67,1.45,1.25,2.94,1.87,4.41,1.31,3.08,2.62,6.16,3.93,9.23,2.63,6.15,5.26,12.3,7.85,18.47,1.35,3.21,2.67,6.42,4,9.64.24.57.48,1.14.7,1.72.34.91.7,2.25.1,3.32-.54.95-1.61,1.33-2.19,1.54-.3.11-1.84.65-3.4.04-1.13-.44-1.91-1.35-2.46-2.31-2.94-5.04-5.21-10.51-7.68-15.8-2.64-5.61-5.27-11.23-7.9-16.86-1.59-3.39-3.18-6.78-4.9-10.11-1.66-3.23-3.21-6.85-6.03-9.2-1.04-.86-2.3-1.52-3.67-1.57-1.33-.05-2.54.56-3.5,1.45-.48.45-.91.97-1.27,1.52-1.42,2.13-2.78,4.29-4.06,6.5-4.14,7.15-8.07,14.41-11.99,21.68-2.8,5.19-5.6,10.38-8.31,15.61-1.48,2.87-3.5,4.06-5.41.62-2-3.63-4.03-7.22-5.87-10.95-1.83-3.74-3.59-7.52-5.41-11.26-1.47-3.03-2.98-6.03-4.6-8.99-1.25-2.26-2.69-6.08-5.88-5.84-.26.02-.52.07-.78.14-.32.08-.65.2-.96.31-.35.13-.7.26-1.05.38-5.38,1.94-10.67,4.11-15.93,6.34-1.09.46-2.19.94-3.05,1.75-2.05,1.9-2.19,5.04-2.19,7.85,0,7.08.02,14.18.03,21.27,0,.88-.04,1.87-.7,2.46-.71.64-1.79.52-2.72.36-10.55-1.79-21.06-3.73-31.55-5.83-1.09-.22-2.22-.43-3.28-.12-.89.26-1.63.88-2.33,1.48-3.11,2.66-6.13,5.41-9.07,8.24-1.47,1.42-2.91,2.86-4.34,4.33-1.96,2.01-3.29,2.9-3.36,4.43-.05,1.17.6,2.14,1.1,2.74,9.98,11.27,42.47,47.92,43.2,48.85.08.1.31.4.24.69-.1.35-.64.48-.87.54-3.42.79-10.78,1.01-10.79,1.01-.26,0-.74.02-1.35-.12-.57-.14-1.7-.52-2.91-1.86-2.96-3.28-5.95-6.54-8.93-9.8-3-3.29-6-6.55-9.01-9.84-2.99-3.28-5.98-6.55-8.97-9.85-1.49-1.65-2.98-3.3-4.46-4.94-1.4-1.56-2.74-3.25-4.36-4.59-.06-.05-.13-.1-.19-.16-.67-.51-1.47-.9-2.31-.85-1.09.06-1.84.83-2.23,1.22-.13.13-.53.66-1.32,1.73-.21.29-.26.35-.68.92-.52.69-.78,1.05-.97,1.29-.64.86-1.26,1.76-1.55,2.18-1.24,1.82-2,2.92-1.93,4.38.08,1.75,1.3,3.23,1.66,3.65.21.25.42.48.66.7,0,0,19.39,22.24,22.39,26.92.65,1.01.4,1.35-.52,1.5-1.79.26-3.59.42-5.39.59-2.66.26-5.32.48-7.99.71-3.07.26-6.15.51-9.23.77-3.05.26-6.1.51-9.14.79-2.59.24-5.17.49-7.74.78-1.45.16-2.85.32-4.22.87-.21.08-.54.23-.9.5-.09.08-.33.27-.6.61-.47.59-.68,1.35-.94,2.05-.3.79-.61,1.6-.89,2.4-.7,1.93-1.41,3.89-1.97,5.88-2.27,7.23-4.28,14.6-5.79,22.03-1.75,8.59-2.89,17.31-3.43,26.06-.15,2.31-.28,4.61-.38,6.92-.3,8.8,0,17.61.88,26.37.9,8.62,2.33,17.2,4.35,25.64.83,3.48,1.77,6.94,2.79,10.36,2.37,8.04,5.26,15.92,8.62,23.6,1.35,3.09,2.8,6.14,4.33,9.14,1.54,3.03,3.33,5.94,4.84,8.97,2.41,4.24,4.98,8.38,7.7,12.43.68,1.02,1.37,2.04,2.27,2.87,1.06,1,2.33,1.52,3.75,1.8,2.03.4,4.13.2,6.17-.02,2.08-.22,4.15-.42,6.22-.76,4.31-.71,8.6-1.39,12.93-1.93,4.12-.51,8.24-.96,12.37-1.35,19.77-1.87,39.35-2.16,39.35-2.16,21.67-.3,39.96.63,79.09,2.46,25.84,1.22,51.72,2.57,77.61,2.54,26.07-.03,52.21-1.53,77.91-6.14,2.19-.39,4.37-.8,6.54-1.25,1.7-.34,3.41-.69,5-1.39,2.24-.98,3.34-2.72,4.53-4.75,1.49-2.52,2.57-4.22,4.3-7.67,4.08-8.15,3.62-7.15,4.13-8.22,2.68-5.66,4.44-10.07,4.88-11.16,2.19-5.52,3.56-9.78,4.59-13.07,1.38-4.4,2.65-8.82,3.76-13.29.58-2.32.96-4.18,1.18-5.16.36-1.71,1.27-5.88,2.05-10.76.26-1.55,1.17-7.4,1.79-15.28.06-.78.21-2.72.34-5.29.46-9.07.24-16,.11-19.1ZM2054.39,140.48c1.03-2.09,2.1-4.2,3.19-6.37.67-1.33,1.33-2.66,2-3.99.61-1.22,1.14-2.61,2-3.68.09-.11.19-.23.31-.29.12-.07.26-.1.39-.06.02,0,.03,0,.04,0,.13.06.22.18.28.3.7,1.31.98,2.85,1.34,4.27.41,1.6.81,3.21,1.2,4.82.78,3.22,1.52,6.45,2.23,9.68,1.16,5.34,2.21,10.7,3.16,16.08.08.47,0,1.3-.66.91-1.46-.86-2.53-2.63-3.64-3.87-1.18-1.33-2.36-2.67-3.55-3.99-2.78-3.12-5.54-6.24-8.24-9.42-1.07-1.33-.82-3-.06-4.41ZM2049.31,96.22c.78.42.8.94.52,1.64-2.18,5.34-10.84,24.55-13.08,29.67-.7,1.68-.69-.46-.75-1.24-.32-8.62-.68-18.58-.96-26.95-.05-1.79-.17-4.13-.21-5.79-.02-.86.06-1.37.44-1.53l.04-.02c.91-.26,3.15.75,4.72,1.17,2.85.97,6.76,1.93,9.27,3.05ZM2033.68,51.99c0-.26.02-.58.26-.71.06-.03.13-.05.2-.04.44,0,.68.56.84.9.34.72.68,1.43,1.04,2.14.39.79.78,1.59,1.17,2.38,1.42,2.9,2.14,4.39,2.84,5.97.63,1.44,1.24,2.89,1.81,4.36.35.9.77,1.79,1.08,2.7.26.77.63,1.56.49,2.39-.04.22-.11.45-.28.61-.12.12-.28.19-.45.24-.97.29-2.08-.05-3.04-.25-.81-.17-1.63-.36-2.43-.57-.32-.08-.64-.17-.96-.26-.15-.04-.39-.12-.69-.25-.46-.2-.9-.47-1.24-.84-.34-.37-.55-.88-.59-1.38,0-.07,0-.13-.01-.2,0-1.2,0-2.39,0-3.59s0-2.36-.02-3.54v-10.08ZM1993.62,86.66c-.38-.41-.77-.82-1.16-1.23-2.28-2.38-4.59-4.73-6.84-7.14-.48-.51-.96-1.02-1.38-1.59-.35-.47-.88-1.14-.84-1.77,0-.08.02-.15.06-.22.1-.22.35-.32.59-.33.4,0,.87.18,1.27.28.45.12.9.24,1.34.36.91.26,1.81.53,2.73.78,1.08.3,2.16.61,3.23.91,1.18.32,2.36.66,3.54.99,1.23.34,2.44.69,3.67,1.03,1.22.33,2.43.68,3.65,1.02,1.16.32,2.31.65,3.46.97,1.03.28,2.07.58,3.11.86,1.6.53,3.48.72,4.27,2.06.32.73.15,2.22.2,3.43-.1,6.38.21,15.22-.14,21.44-.05.27-.22.47-.46.26-.72-.62-1.31-1.43-1.95-2.13-2.67-2.92-5.33-5.86-8-8.78-3.42-3.76-6.87-7.5-10.34-11.21ZM1974.45,166.13c2.46-4.28,9.28-14.26,13.27-20.34.47-.71,1.05-1.44,1.76-1.81l.06-.04c.8-.39,1.77-.36,2.67-.3,3.32.24,7.55.57,11.82.92,5.49.46,11.05.93,14.84,1.26,2.43.08,3.94,1.52,5.53,3.32.8.84,1.71,1.8,2.6,2.73,1.21,1.43,3.35,3.07,3.67,4.65.03.48-.39.89-.77,1.22-3.84,3.4-14.1,12.14-20.36,17.55-1.91,1.53-3.89,4.11-6.48,2.84-5.63-2.2-20.2-7.52-27.36-10.49-.76-.36-1.51-.65-1.26-1.5ZM1926.43,148.28h.02c9.26-.71,28.75-1.46,34.17-1.56.31,0,.77,0,.8.33-.05.88-1.08,2.23-2.05,3.95-1.75,2.71-3.6,6.33-5.51,8.75-.71.75-1.39.77-2.24.4-4.72-2.17-19.72-9.07-24.43-11.28-.23-.13-.98-.38-.77-.6ZM1925.7,196.34c.16-4.31.49-8.62,1.27-12.86.36-1.98.85-3.9,1.4-5.83.5-1.74.98-3.56,2.15-4.98.43-.53.99-1.01,1.65-1.14.09-.02.17-.03.26-.03.43-.03.86.1,1.27.25,2,.69,3.89,1.64,5.77,2.6.7.35,1.38.71,2,1.17.25.19.49.4.63.67.4.77-.29,1.8-.52,2.15-.94,1.46-7.17,8.53-15.86,18.01ZM2085.38,231.73c-.26,5.78-.54,11.55-.8,17.33-.53,11.41-1.07,22.83-1.6,34.24-.05,1.11-.23,2.42-1.21,2.93-.51.26-1.11.24-1.68.2-9.04-.54-17.83-2.03-26.79-3.2-9.39-1.22-18.8-2.33-28.23-3.36-26.16-2.83-52.52-5.47-78.85-5.2-2.09.02-4.31-.29-5.93-1.62-1.48-1.22-2.24-3.09-2.9-4.89-6.91-18.64-11.07-38.42-11.83-58.31-.07-1.76,1.46-1.77,2.84-1.86,2.55-.17,5.1-.34,7.65-.51,2-.14,4-.27,5.97-.67,1.82-.37,3.15-.78,4.29-2.31,2.75-3.65,8.71-11.67,12.41-16.62,1.83-2.72,3.41-4.17,6.77-2.94,6.54,2.22,13.31,4.79,19.58,7.89,4.1,2.41-.21,6.29-1.96,8.92-.98,1.46-2.24,2.81-3.36,4.17-.58.7-1.15,1.38-1.73,2.08-.29.36-.58.73-.88,1.08-.13.15-.32.37-.35.7,0,.1-.02.3.12.49.17.23.48.26.6.26.85.08,14.45-.48,15.29-.51,1.36-.06,2.21-.1,2.62-.12,1.55-.07,2.22-.09,3.05-.42,0,0,.61-.24,1.21-.65.28-.19.57-.38.84-.58,1.64-1.15,3.26-2.32,4.86-3.51,6.85-5.13,13.5-10.54,20.09-16.01,6.7-5.57,13.23-11.32,19.8-17.04.61-.53,1.23-1.22,2.11-1.22,1.81-.06,3.76,2.24,4.92,3.4,1.05,1.05,2.1,2.1,3.02,3.26.38.48.76,1,.88,1.61,0,0,.17,1.05-.59,2.29-2,3.23-28.69,26.07-30.65,28.36-.16.19-.61.72-.46,1.16.22.64,1.59.74,2.5.74,10.97.22,19.07.15,21.45-.09,1.4-.14,2.58-.63,2.58-.63.67-.29,1.14-.6,1.35-.73,3.37-2.24,6.64-4.62,9.92-6.99,1.58-1.15,3.18-2.26,4.75-3.41,1.28-.94,2.65-2.18,4.37-2,1.01.1,1.89.71,2.65,1.37,1.83,1.58,3.11,3.6,4.49,5.56,1.49,2.12,2.94,4.27,4.28,6.49.76,1.25,1.52,3.29,2.19,5.98,1.24,4.97.6,9.85.36,14.9ZM2101.76,145.31c-.21,3.45-.36,6.49-.54,10.13-.16,3.06-.31,6.07-.46,7.98-.04,1.58-.94,1.73-2.3,1.29-2.14-.82-5.24-1.36-6.43-3-.38-.57-.47-1.33-.52-2.04-.12-2.66-.33-6.87-.42-10.11-.26-3.47,2.01-3.93,4.65-5.31,1.06-.54,2.2-1.11,3.22-1.61,1.07-.52,1.95-.91,2.39-.78l.05.02c.74.39.36,1.85.35,3.43ZM2108.2,89.12c-1.06,7.43-2.4,17.28-3.4,23.94-.15.97-.34,2.02-.81,2.8-.34.57-.84,1.05-1.38,1.46-3.38,2.52-9.73,6.82-14.08,9.89-3.3,2.43-3.13-.34-4.17-3.27-3.06-10.05-8.98-29.48-10.6-34.82-.51-1.98.78-3.4,1.7-5.36,4.44-8.46,11.47-21.8,16.54-31.44.66-1,1.51-3.71,2.65-3.35l.04.02c.57.32,1.12,1.43,1.48,2.18,4.14,8.58,7.82,17.83,11.64,26.94,1.79,3.54.97,7.28.4,11.01ZM2170.64,139.8c4.31-6.79,8.6-13.57,12.91-20.35,1.67-2.63,3.34-5.27,5.21-7.76,1.63-2.17,3.52-3.19,6.23-3.56,2.46-.33,4.93-.63,7.43-.74.62-.03.93.15,1.05.44.2.48-.17,1.27-.54,1.89-3.22,5.39-6.56,10.7-9.94,16-1.71,2.68-3.43,5.35-5.15,8.02-.82,1.28-1.67,2.55-2.47,3.84-.65,1.05-1.24,2.2-2.38,2.78-.78.39-1.67.45-2.53.49-3.01.15-6.02.21-9.04.18-.39,0-.86-.07-.99-.43-.1-.26.06-.56.22-.79ZM2156.54,165.7c1.33-.76,2.92-.75,4.84-1.02,1.73-.21,3.47-.41,5.18-.63,1.81-.13,4.88-.85,5.89-.36.33.25,0,.8-.2,1.16-2.36,3.93-8.65,13.83-12.31,19.71-.55.87-1.19,1.81-1.99,2.34-.97.68-2.29.69-4.09.86-1.3.11-2.82.25-4.32.38-1.15.1-2.3.21-3.33.29-1.68.04-5.02.87-4.08-.75,1.78-2.92,5.5-8.85,9.04-14.48,1.4-2.21,2.72-4.28,3.76-5.86.43-.63.91-1.22,1.55-1.62l.07-.04ZM2131.88,90.21c.23-1.55,1.76-2.26,3.42-3.47,1.16-.79,2.37-1.64,3.52-2.42.63-.39,1.37-.95,2.03-.69l.05.03c.96.75,1.11,2.53,1.09,3.72-.14,2.42-2.9,4.11-4.63,5.98-.63.61-1.3,1.26-1.9,1.83-.69.68-1.71,1.58-2.32.43-.67-1.53-1.37-3.68-1.27-5.42ZM2123.49,132.2c.02-.38.04-1.25.6-2.07.43-.63,1.03-1.13,1.65-1.59,2.46-1.85,4.69-3.99,7.06-5.96,2.51-2.08,4.99-4.2,7.49-6.31,2.5-2.11,5.03-4.2,7.6-6.23.68-.54,1.37-1.07,2.05-1.6.19-.15.39-.31.63-.36,1-.23,1.32,1.53,1.5,2.18.22.81.5,1.61.75,2.41.5,1.6.99,3.21,1.49,4.81,1.79,5.79,2.29,7.38,1.57,9.26-.18.47-.39.82-.51,1.02-1.29,1.74-2.57,3.48-3.86,5.22-.6.81-.3.41-3.56,4.81-1.98,2.68-7.39,9.93-21.1,28.27-.73,1.15-1.54,1.89-2.05,1.72-.17-.06-.58-.26-.7-1.97-.08-1.13-.09-2.26-.12-3.39-.05-2.05-.09-4.09-.12-6.14-.08-4.69-.1-7.04-.12-7.49,0-.26-.49-12.74-.25-16.58ZM2275.97,206.23c-1.12,32.74-11.97,63.82-26.06,93.07-.9,1.87-2.56,3.84-4.46,4.71-1.87.86-4.04.71-6.09.53-35.06-3.04-70.12-6.16-105.14-9.54-1.63-.16-3.27-.31-4.83-.79-2.01-.62-3.86-1.79-4.78-3.74-.9-1.92-.9-4.11-1.18-6.18-.38-2.94-.77-5.9-1.06-8.85-.61-6.23-.96-12.47-1.3-18.72-.33-5.89-.66-11.77-.99-17.67-.29-5.38-.84-10.82-.61-16.17,0-.41.07-1.57.78-2.72.64-1.03,1.64-1.81,2.88-2.26,16.35-5.35,38.56-11.55,52.55-15.73,1.98-.55,4.57-1.4,6.52-1.83,2.39-.43,3.85,2.9,5.27,4.42,2.34,2.9,4.29,5.86,6.75,8.5,1.72,1.69,4.03,1.28,6.29.99,1.41-.16,2.88-.33,4.33-.5,1.64-.31,4.11-.06,4.37-1.74,0-.67-.26-1.23-.65-2.01-.73-1.38-1.57-2.93-2.43-4.55-1.03-2.23-3.16-5.1-3.37-7.21.02-.62.57-.88,1.13-1,3.91-.89,14.25-3.19,22.04-4.89,1.67-.34,3.6-.89,5.23-.59.85.18,1.46.66,2.03,1.28,3.43,3.94,10.33,12.32,14.73,17.51.32.37.97,1.31,2.19,1.93,1.05.54,2.07.63,2.7.63,5.24-.19,10.49-.37,15.73-.56.23,0,1.3-.03,1.57-.63.19-.42-.11-.91-.26-1.17-.73-1.23-1.38-2.49-2.09-3.73-3.44-5.99-6.77-12.05-9.98-18.16-.44-.84-.9-1.8-.64-2.72.18-.65.71-1.17,1.3-1.49.51-.27.92-.46,1.12-.52,3.27-.98,7.59-1.61,7.59-1.61,2.04-.3,3.07-.39,4.24-.12,3.76.88,4.25,5.56,4.4,8.69.25,5.04.36,10.07.19,15.12Z"/>
          <path d="M2261.03,322.92c-.12.64-.64,1.3-.95,1.73-1.8,2.39-3.61,4.76-5.51,7.07-.64.78-1.21,1.47-2.08,2.51-.73.87-1.27,1.5-1.86,2.19-1.42,1.66-2.05,2.35-2.24,2.56-.37.41-.7.77-1.06,1.16-1.07,1.15-3.38,3.62-4.85,5.12-6.89,7.07-17.69,16.09-18.52,16.78-.03.03-.07.05-.1.08-1.91,1.59-3.85,3.19-6.11,4.21-3.75,1.71-7.79,1.54-11.81,1.48-4.37-.07-8.74-.2-13.1-.37-7.92-.31-15.83-.77-23.72-1.36-6.18-.46-12.36-1-18.53-1.63-1.59-.16-5.7-.59-11.07-1.23-9.01-1.08-16.12-2.1-25.17-3.42,0,0-4.17-.6-7.66-1.13-32.69-4.92-39.45-7.21-69.67-11.55-13.53-1.93-27.08-3.71-40.66-5.24-12.73-1.45-25.47-2.41-38.26-3.16-.64-.03-1.27-.07-1.9-.15-.69-.08-1.39-.2-2.02-.52-.57-.28-1.05-.76-1.51-1.19-.57-.53-.96-.91-1.4-1.37-.37-.39-.67-.72-.98-1.16,0,0-.06-.09-.12-.17-.9-1.32-1.58-2.31-1.26-3.3.4-1.24,1.72-1.74,2.88-1.97,1.63-.33,3.26-.64,4.9-.95,2.22-.42,1.1-.33,9.83-1.68,9.15-1.42,17.32-2.14,20.85-2.45,2.54-.22,7.56-.63,14.05-.95,12-.59,21.42-.49,25.5-.42,30.94.48,78.42,3.04,78.42,3.04,26.08,1.53,52.18,3.03,78.32,2.84,20.78-.15,41.76-1.23,62.31-4.47,2.59-.41,5.18-.8,7.76-1.27,1.3-.23,2.58-.48,3.87-.77.84-.19,1.73-.38,2.57-.18.28.07.58.2.74.45.16.25.18.53.12.82Z"/>
          <path d="M2202.91,375.7c.27.76-.76,1.38-1.33,1.71-19.44,11.4-40.8,19.54-62.94,23.77-16.87,3.22-34.17,4.23-51.3,3.03-21.72-1.52-43.15-6.65-63.19-15.18-19.47-8.29-37.56-19.73-53.42-33.74-2.36-2.08-4.76-4.17-6.95-6.43-.27-.28-.56-.56-.83-.84-.81-.82-1.43-2.26.09-2.71.46-.14.96-.1,1.44-.07,26.05,1.87,51.77,5.08,77.58,9.16,25.91,4.09,51.74,8.64,77.72,12.29,26.03,3.66,52.28,5.21,78.42,7.78.92.09,1.84.18,2.76.27.63.06,1.32.15,1.73.63.1.11.16.22.2.33Z"/>
        </g>
      </g>
      <path d="M2298.78,48.26c2.92,0,5.53-.21,5.53-3.71,0-2.81-2.55-3.33-4.95-3.33h-4.68v7.03h4.1ZM2294.68,61.04h-3.43v-22.74h8.63c5.37,0,8.02,1.98,8.02,6.46,0,4.08-2.55,5.85-5.87,6.27l6.45,10.01h-3.86l-5.97-9.86h-3.96v9.86ZM2298.84,66.1c8.9,0,15.92-6.99,15.92-16.49s-7.02-16.37-15.92-16.37-16.03,7.03-16.03,16.37,7.02,16.49,16.03,16.49M2278.85,49.61c0-11.32,9.16-19.67,19.99-19.67s19.88,8.35,19.88,19.67-9.16,19.78-19.88,19.78-19.99-8.35-19.99-19.78"/>
    </g>
    <g id="Wordmark">
      <path id="Wordmark-2" data-name="Wordmark" d="M1840.11,345.51c0,14.09,15.22,7.89,15.22,18.6,0,11.27-10.15,19.73-32.69,28.75-20.85,8.45-38.89,14.09-52.42,14.09-5.07,0-6.76-2.82-6.76-5.64,0-5.07,4.51-12.4-1.13-12.4-8.45,0-11.84,18.04-40.58,18.04-46.78,0-69.33-41.15-69.33-113.29,0-86.24,28.18-151.07,81.16-151.07,8.45,0,18.6,3.95,23.67,6.76,3.95,2.25,6.76,1.69,6.76-2.82v-58.04c0-25.93-23.67-22.55-23.67-37.76,0-5.64,2.82-10.71,12.96-12.96,17.47-3.95,28.18-10.15,45.09-19.16,9.58-5.07,17.47-9.02,26.49-9.02,9.58,0,15.22,7.33,15.22,18.04v317.9ZM1744.29,347.2c14.09,0,21.98-40.58,21.98-81.73s-8.45-85.69-27.05-85.69c-14.09,0-21.98,40.04-21.98,81.18s8.45,86.24,27.05,86.24ZM1328.89,361.3c9.02,0,15.22-5.64,15.22-20.85,0-21.98-1.69-45.09-4.51-67.07-.56-6.2-3.38-9.02-7.33-9.02-11.27,0-29.87,21.98-29.87,53.55,0,16.91,6.2,43.4,26.49,43.4ZM1308.6,406.95c-50.16,0-72.15-41.71-72.15-76.66,0-48.47,40.02-81.16,89.06-93.56,6.2-1.69,7.89-3.38,8.45-9.02,2.82-26.49.56-51.86-29.87-51.86-4.51,0-9.02.56-11.27,2.25-2.25,1.69-3.38,5.07.56,7.33,8.45,5.07,11.27,13.53,11.27,21.42,0,12.96-10.71,27.62-30.44,27.62-23.11,0-34.95-18.04-34.95-35.51,0-37.76,37.76-56.36,78.91-56.36,36.07,0,74.96,14.09,83.98,61.44,5.64,29.31,10.15,110.47,11.27,140.35.56,17.47,7.89,10.71,12.4,10.71,7.33,0,14.65,7.89,14.65,19.73,0,2.25-.56,4.51-1.13,6.2,5.64-3.38,12.96-5.07,12.96-14.09v-161.2c0-16.35-19.16-12.96-19.16-25.93,0-5.64,3.38-9.02,11.27-12.96,12.4-6.2,47.35-19.44,60.31-22.82,15.22-3.95,20.29,0,20.29,14.65v5.35c0,4.51,4.51,5.64,7.33.56,6.2-11.84,21.98-21.98,40.58-21.98,24.24,0,40.58,16.91,51.29,46.78,16.35,46.22,23.11,119.49,25.36,171.91,1.13,21.98,18.04,15.22,18.04,29.31,0,8.45-6.76,14.09-23.11,14.09h-56.93c-17.47,0-24.8-5.64-24.8-15.22,0-14.65,18.04-2.25,18.04-28.75,0-35.51-7.33-96.95-21.98-140.91-6.2-19.16-11.84-26.49-20.85-26.49-7.89,0-9.58,6.2-9.58,21.98v151.62c0,14.09,17.47,9.58,17.47,23.67,0,8.45-6.76,14.09-23.11,14.09h-64.82c-16.35,0-23.11-5.64-23.11-14.09-6.76,9.58-19.16,16.35-32.13,16.35-15.22,0-28.18-7.89-38.89-20.29-2.82-3.38-4.51-2.82-7.33,0-10.15,9.58-25.36,20.29-47.91,20.29ZM995.78,404.7c-15.78,0-22.55-5.64-22.55-14.09,0-14.09,16.91-9.58,16.91-23.67v-161.2c0-16.35-19.16-12.96-19.16-25.93,0-5.64,3.38-9.02,11.27-12.96,12.4-6.2,47.35-19.44,60.31-22.82,15.22-3.95,22.55,0,22.55,14.65v20.56c0,6.2,4.51,6.76,6.76,1.13,9.02-21.42,31.56-37.76,55.24-37.76,7.33,0,16.91,1.69,24.24,5.64l2.82,1.69v-61.44c0-27.05-16.91-23.67-16.91-39.46,0-5.64,2.25-9.58,10.71-12.96,10.71-4.51,25.36-9.58,40.58-17.47,9.58-5.07,17.47-9.02,26.49-9.02,9.58,0,15.22,7.33,15.22,18.04v339.31c0,14.09,17.47,9.58,17.47,23.67,0,8.45-6.76,14.09-23.11,14.09h-64.82c-15.78,0-22.55-5.64-22.55-14.09,0-14.09,16.91-9.58,16.91-23.67v-166.28l-2.25,9.58c-3.95,14.65-9.58,18.04-16.35,18.04-24.8,0-14.09-26.49-27.05-26.49-16.35,0-42.27,26.49-42.27,94.13v71.02c0,14.09,17.47,9.58,17.47,23.67,0,8.45-6.76,14.09-23.11,14.09h-64.82ZM905.59,253.08c7.33-3.38,10.71-6.76,10.71-19.73,0-23.11-15.22-55.82-30.44-55.82-6.76,0-14.65,5.65-14.65,38.91,0,15.22,1.69,34.38,5.07,42.84,1.69,4.51,3.95,5.64,9.02,3.38l20.29-9.58ZM726.35,347.2c18.6,0,27.05-43.4,27.05-86.24s-7.89-81.18-21.98-81.18c-18.6,0-27.05,42.85-27.05,85.69s7.89,81.73,21.98,81.73ZM97.33,404.7c-18.04,0-25.93-5.64-25.93-14.09,0-14.09,20.29-9.58,20.29-29.31V67.64c0-10.71-2.82-14.65-8.45-14.65-7.33,0-14.09,6.76-18.6,15.78l-21.98,43.4c-5.07,9.58-10.15,18.6-23.67,18.6-15.78,0-21.42-12.4-18.04-27.62L21.24,13.53C23.49,3.95,26.87,0,33.07,0c10.71,0,14.09,10.15,23.67,10.15h156.69c9.58,0,12.96-10.15,23.67-10.15,6.2,0,9.58,3.95,11.84,13.53l20.29,89.62c3.38,15.22-2.25,27.62-18.04,27.62-13.53,0-19.16-9.58-23.67-18.6l-21.98-43.4c-4.51-9.02-11.27-15.78-18.6-15.78-5.64,0-8.45,3.95-8.45,14.65v293.66c0,18.04,17.47,15.78,19.73,26.49,2.25-10.71,16.91-7.89,16.91-20.85v-161.48c0-16.35-19.16-12.96-19.16-25.93,0-5.64,3.38-9.02,11.27-12.96,12.4-6.2,47.35-19.16,60.31-22.55,15.22-3.95,23.67,0,23.67,14.65v208.26c0,12.96,15.22,10.15,17.47,20.85,1.69-10.71,16.91-7.89,16.91-20.85v-161.2c0-16.35-19.16-12.96-19.16-25.93,0-5.64,3.38-9.02,11.27-12.96,12.4-6.2,47.35-19.44,60.31-22.82,15.22-3.95,20.29.27,20.29,14.93v5.07c0,4.51,4.51,5.64,7.33.56,6.76-11.84,21.98-21.98,45.66-21.98,27.05,0,39.46,12.96,43.96,21.98,1.69,3.38,4.51,3.38,6.2,0,6.2-11.84,20.85-21.98,42.84-21.98,24.8,0,38.89,12.96,49.6,42.84,16.35,45.66,23.67,129.07,23.67,175.86,0,14.65,7.89,16.35,12.96,20.29V88.49c0-27.05-16.91-23.67-16.91-39.46,0-5.64,2.25-9.58,10.71-12.96,10.71-4.51,25.36-9.58,40.58-17.47,9.58-5.07,17.47-9.02,26.49-9.02,9.58,0,14.09,7.33,14.09,18.04v120.6c0,3.38,2.25,4.51,5.64,2.25,7.33-5.07,15.78-7.89,24.24-7.89,45.66,0,73.27,45.67,80.04,110.49,6.2-67.07,38.33-110.49,85.67-110.49,52.98,0,80.6,55.82,80.6,90.2,0,11.84-2.25,22.55-19.16,29.31l-69.33,27.05c-7.89,3.38-9.02,6.76-6.76,13.53,8.45,27.62,24.24,42.84,43.96,42.84,28.18,0,5.64-31,33.25-31,8.45,0,21.98,2.82,21.98,28.75,0,36.07-28.18,63.69-70.46,63.69-48.47,0-89.06-36.07-98.64-99.76-4.51,63.69-30.44,99.76-80.6,99.76-40.02,0-49.6-23.11-58.62-23.11-10.71,0-10.15,23.11-31,23.11-6.76,0-11.27-2.25-14.09-8.45-2.82,3.95-9.58,6.2-20.29,6.2h-58.62c-16.35,0-23.11-5.64-23.11-15.22,0-14.65,16.35-2.25,16.35-28.75,0-12.96-3.95-98.07-12.96-140.91-3.95-19.16-11.84-26.49-20.85-26.49-7.89,0-9.58,6.2-9.58,21.98v151.62c0,14.09,15.78,9.58,15.78,23.67,0,8.45-6.2,14.09-21.42,14.09h-52.42c-16.35,0-23.11-5.64-23.11-14.65,0-12.96,14.65-9.02,15.22-23.11,1.69-53.55,1.13-103.15-.56-152.75-.56-16.91-5.64-23.67-14.65-23.67-12.4,0-20.29,12.96-20.29,31v145.42c0,14.09,17.47,9.58,17.47,23.67,0,8.45-6.76,14.09-23.11,14.09h-64.82c-14.65,0-21.42-4.51-22.55-11.27-1.69,6.76-8.45,11.27-23.11,11.27h-64.82c-14.09,0-20.85-4.51-22.55-11.27-1.13,6.76-9.58,11.27-25.36,11.27h-75.53Z"/>
      <path d="M1671.89,48.18c2.93,0,5.53-.21,5.53-3.71,0-2.81-2.55-3.33-4.95-3.33h-4.68v7.04h4.1ZM1667.79,60.97h-3.44v-22.75h8.63c5.37,0,8.02,1.98,8.02,6.46,0,4.08-2.55,5.85-5.87,6.27l6.45,10.02h-3.86l-5.98-9.86h-3.96v9.86ZM1671.95,66.03c8.9,0,15.92-6.99,15.92-16.49s-7.03-16.38-15.92-16.38-16.03,7.04-16.03,16.38,7.02,16.49,16.03,16.49M1651.96,49.54c0-11.32,9.17-19.67,19.99-19.67s19.88,8.35,19.88,19.67-9.16,19.78-19.88,19.78-19.99-8.36-19.99-19.78"/>
    </g>
  </g>
</svg>