<?xml version="1.0" encoding="UTF-8"?>
<svg xmlns="http://www.w3.org/2000/svg" viewBox="0 0 199.18 11.07">
    <path fill="#cc0c2f" d="M94.45 2.82h8.3v5.41h-8.3z"/>
    <path fill="#fff" d="M86.16 2.84h8.3v5.4h-8.3z"/>
    <path fill="#00174f" d="M86.16.14h16.59v2.69H86.16zM86.16 8.22h16.59v2.7H86.16z"/>
    <path fill="#00174f" d="M15.73 8.75H12v9.4h-1.56v-9.4H6.71V7.36h9zM27.2 7.22a5.54 5.54 0 1 1 0 11.07 5.54 5.54 0 1 1 0-11.07zm0 9.65a4.05 4.05 0 0 0 4.21-4.11 4 4 0 0 0-4.21-4.12 4 4 0 0 0-4.2 4.12 4 4 0 0 0 4.2 4.11zM50.34 18.15h-1.55v-8.4l-3.32 4.18h-.25l-3.36-4.18v8.4h-1.58V7.36h1.46l3.58 4.43 3.58-4.43h1.44zM69.17 18.15h-1.55v-8.4l-3.32 4.18H64l-3.31-4.18v8.4H59.1V7.36h1.46l3.58 4.43 3.59-4.43h1.44zM83.58 7.36h1.87l-4 5.09v5.69h-1.56v-5.7l-4-5.08h1.87l2.89 3.72zM127.38 18.15h-1.55v-4.7h-6v4.7h-1.55V7.36h1.55v4.7h6v-4.7h1.55zM135.36 18.15h-1.55V7.36h1.55zM143.27 16.76h4.87v1.39h-6.42V7.36h1.55zM158.35 8.75h-4.21v3h4.21v1.39h-4.21v5h-1.55V7.36h5.76zM165.33 18.15h-1.55V7.36h1.55zM180.09 17.41a9.45 9.45 0 0 1-4.11.89 5.45 5.45 0 0 1-5.74-5.47A5.59 5.59 0 0 1 176 7.22a8.78 8.78 0 0 1 3.84.92V9.7A8 8 0 0 0 176 8.64a4.12 4.12 0 1 0 .21 8.23 7.56 7.56 0 0 0 2.34-.43v-2.21h-2.07v-1.39h3.62zM192.11 8.75h-4.57V12H192v1.4h-4.41v3.35h4.71v1.39H186V7.36h6.12zM200.27 7.36c2.18 0 3.54 1.16 3.54 3A2.7 2.7 0 0 1 202 13a8.8 8.8 0 0 1 2.4 3c.46.74.73 1.11 1.47 2.13H204l-1.42-2.21c-1.42-2.21-2.07-2.47-2.86-2.47h-.65v4.68h-1.55V7.36zm-1.17 4.71h1c1.66 0 2.14-.85 2.12-1.76s-.62-1.63-2.12-1.63h-1z" transform="translate(-6.71 -7.22)"/>
</svg>